<svg xmlns="http://www.w3.org/2000/svg" width="900" height="190" viewBox="0 0 900 190" role="img" aria-labelledby="title desc">
  <title id="title">离开 IDE 后的兴趣</title>
  <desc id="desc">射箭、国学、魔方、老友记和大明王朝 1566 五项兴趣组成轻微浮动的卡片。</desc>
  <defs><linearGradient id="bg" x1="0" y1="0" x2="1" y2="1"><stop stop-color="#1d2021"/><stop offset="1" stop-color="#282828"/></linearGradient></defs>
  <style>.card{animation:float 4.5s ease-in-out infinite}.card.d2{animation-delay:-.9s}.card.d3{animation-delay:-1.8s}.card.d4{animation-delay:-2.7s}.card.d5{animation-delay:-3.6s}@keyframes float{0%,100%{transform:translateY(0)}50%{transform:translateY(-7px)}}@media(prefers-reduced-motion:reduce){.card{animation:none}}</style>
  <rect x="1" y="1" width="898" height="188" rx="20" fill="url(#bg)" stroke="#504945" stroke-width="2"/>
  <text x="450" y="29" fill="#928374" font-family="Consolas,monospace" font-size="11" letter-spacing="2" text-anchor="middle">OFF DUTY / NO LOGS TO READ</text>
  <g font-family="Segoe UI,Arial,sans-serif" text-anchor="middle"><g class="card"><rect x="35" y="52" width="150" height="102" rx="15" fill="#3c3836" stroke="#d79921"/><path d="M82 65 Q118 86 82 108 M87 68 L127 105 M127 105 L117 103 M127 105 L124 95" fill="none" stroke="#fabd2f" stroke-width="2"/><text x="110" y="130" fill="#fabd2f" font-size="13" font-weight="700">射箭</text><text x="110" y="147" fill="#928374" font-size="9">ARCHERY</text></g><g class="card d2"><rect x="205" y="52" width="150" height="102" rx="15" fill="#3c3836" stroke="#b8bb26"/><path d="M242 66 H280 V112 H242 Z M280 66 H318 V112 H280 M252 78 H270 M290 78 H308" fill="none" stroke="#b8bb26" stroke-width="2"/><text x="280" y="130" fill="#b8bb26" font-size="13" font-weight="700">国学</text><text x="280" y="147" fill="#928374" font-size="9">CLASSICS</text></g><g class="card d3"><rect x="375" y="52" width="150" height="102" rx="15" fill="#3c3836" stroke="#458588"/><path d="M422 72 L450 60 L478 74 L450 89 Z M422 72 V103 L450 119 V89 M478 74 V104 L450 119" fill="none" stroke="#83a598" stroke-width="2"/><text x="450" y="134" fill="#83a598" font-size="13" font-weight="700">魔方</text><text x="450" y="150" fill="#928374" font-size="9">AO5 SUB 10</text></g><g class="card d4"><rect x="545" y="52" width="150" height="102" rx="15" fill="#3c3836" stroke="#8ec07c"/><rect x="594" y="66" width="52" height="39" rx="4" fill="none" stroke="#8ec07c" stroke-width="2"/><path d="M609 117 H631 M620 105 V117" stroke="#8ec07c" stroke-width="2"/><text x="620" y="134" fill="#8ec07c" font-size="13" font-weight="700">老友记</text><text x="620" y="150" fill="#928374" font-size="9">FRIENDS</text></g><g class="card d5"><rect x="715" y="52" width="150" height="102" rx="15" fill="#3c3836" stroke="#d65d0e"/><path d="M762 66 H818 V108 H762 Z M773 66 V108 M807 66 V108 M762 78 H818 M762 98 H818" fill="none" stroke="#fe8019" stroke-width="2"/><text x="790" y="130" fill="#fe8019" font-size="13" font-weight="700">大明王朝 1566</text><text x="790" y="147" fill="#928374" font-size="9">MING</text></g></g>
</svg>
